name C:\Users\antoi\Documents\MyRepositories\upper-imu-dc\Results\main_tracking\Case_77\kinematics.mot
datacolumns 10
datarows 52
range 3.75000000 4.26000000
endheader 
time	clav_prot	clav_elev	scapula_abduction	scapula_elevation	scapula_upward_rot	scapula_winging	plane_elv	shoulder_elv	axial_rot	
          3.75000000	        -46.59510179	          9.21483319	         -2.89983490	         -1.70606714	         84.11764281	        -13.31953234	         37.23053374	         88.09778963	         -9.46975930	
          3.76000000	        -46.61052208	          9.21453290	         -2.92394540	         -1.70728834	         84.11968991	        -13.32991539	         37.21661335	         88.05566990	         -9.35699024	
          3.77000000	        -46.62072337	          9.21696610	         -2.94567717	         -1.70715705	         84.11422332	        -13.33867713	         37.20616428	         88.01333639	         -9.24158135	
          3.78000000	        -46.62526161	          9.22232917	         -2.96454847	         -1.70553750	         84.10096836	        -13.34560132	         37.19899375	         87.97091043	         -9.12399994	
          3.79000000	        -46.62366593	          9.23076774	         -2.97997781	         -1.70231789	         84.07970835	        -13.35042930	         37.19490395	         87.92848878	         -9.00482257	
          3.80000000	        -46.61546652	          9.24236527	         -2.99132270	         -1.69741952	         84.05029091	        -13.35287580	         37.19372518	         87.88612629	         -8.88472008	
          3.81000000	        -46.60022528	          9.25713462	         -2.99792690	         -1.69080469	         84.01262988	        -13.35264844	         37.19534834	         87.84382091	         -8.76443895	
          3.82000000	        -46.57756662	          9.27501767	         -2.99917362	         -1.68247982	         83.96670227	        -13.34947044	         37.19975163	         87.80150291	         -8.64477875	
          3.83000000	        -46.54720530	          9.29589027	         -2.99453867	         -1.67249541	         83.91254034	        -13.34310352	         37.20702029	         87.75902943	         -8.52656492	
          3.84000000	        -46.50896729	          9.31956980	         -2.98363574	         -1.66094407	         83.85021977	        -13.33336715	         37.21735741	         87.71618509	         -8.41061665	
          3.85000000	        -46.46280102	          9.34582254	         -2.96624663	         -1.64795818	         83.77984641	        -13.32015100	         37.23108457	         87.67268803	         -8.29771169	
          3.86000000	        -46.40877636	          9.37436860	         -2.94232957	         -1.63370798	         83.70154450	        -13.30341759	         37.24863136	         87.62820087	         -8.18855207	
          3.87000000	        -46.34707082	          9.40488420	         -2.91200266	         -1.61839997	         83.61544891	        -13.28319450	         37.27051393	         87.58234515	         -8.08373534	
          3.88000000	        -46.27794529	          9.43700271	         -2.87550568	         -1.60227465	         83.52170241	        -13.25955775	         37.29730514	         87.53471830	         -7.98373459	
          3.89000000	        -46.20171392	          9.47031681	         -2.83314912	         -1.58560239	         83.42045770	        -13.23261074	         37.32960090	         87.48491162	         -7.88888849	
          3.90000000	        -46.11871429	          9.50438440	         -2.78526173	         -1.56867655	         83.31188280	        -13.20246384	         37.36798793	         87.43252788	         -7.79940202	
          3.91000000	        -46.02928268	          9.53873946	         -2.73214640	         -1.55180329	         83.19616860	        -13.16921865	         37.41301680	         87.37719695	         -7.71535757	
          3.92000000	        -45.93373678	          9.57290741	         -2.67404875	         -1.53528900	         83.07353705	        -13.13295852	         37.46518116	         87.31858893	         -7.63673621	
          3.93000000	        -45.83236551	          9.60642264	         -2.61113850	         -1.51942689	         82.94424900	        -13.09374485	         37.52490213	         87.25642455	         -7.56344742	
          3.94000000	        -45.72542514	          9.63884552	         -2.54350235	         -1.50448469	         82.80861036	        -13.05161782	         37.59251642	         87.19048311	         -7.49536419	
          3.95000000	        -45.61314088	          9.66977683	         -2.47114755	         -1.49069499	         82.66697519	        -13.00660065	         37.66826808	         87.12060755	         -7.43235852	
          3.96000000	        -45.49571376	          9.69886894	         -2.39401660	         -1.47824862	         82.51974507	        -12.95870744	         37.75230474	         87.04670589	         -7.37433210	
          3.97000000	        -45.37333225	          9.72583397	         -2.31201210	         -1.46729096	         82.36736410	        -12.90795375	         37.84467897	         86.96874831	         -7.32123841	
          3.98000000	        -45.24618674	          9.75045023	         -2.22502934	         -1.45792014	         82.21031023	        -12.85436935	         37.94535484	         86.88675983	         -7.27309463	
          3.99000000	        -45.11448470	          9.77256703	         -2.13299177	         -1.45018665	         82.04908359	        -12.79801102	         38.05421838	         86.80080895	         -7.22998369	
          4.00000000	        -44.97846357	          9.79210771	         -2.03588370	         -1.44409403	         81.88419326	        -12.73897338	         38.17109023	         86.71099359	         -7.19204823	
          4.01000000	        -44.83839848	          9.80906928	         -1.93377386	         -1.43960149	         81.71614387	        -12.67739512	         38.29573771	         86.61742601	         -7.15947867	
          4.02000000	        -44.69460308	          9.82351663	         -1.82682562	         -1.43662929	         81.54542263	        -12.61345906	         38.42788500	         86.52021958	         -7.13249693	
          4.03000000	        -44.54742535	          9.83557087	         -1.71529488	         -1.43506742	         81.37248969	        -12.54738683	         38.56722155	         86.41947641	         -7.11133639	
          4.04000000	        -44.39724041	          9.84539276	         -1.59951803	         -1.43478657	         81.19777300	        -12.47942978	         38.71340903	         86.31527600	         -7.09621752	
          4.05000000	        -44.24443493	          9.85316453	         -1.47989009	         -1.43565024	         81.02165712	        -12.40985514	         38.86608669	         86.20767658	         -7.08731968	
          4.06000000	        -44.08939299	          9.85907481	         -1.35684492	         -1.43752455	         80.84447335	        -12.33893413	         39.02487761	         86.09672156	         -7.08475314	
          4.07000000	        -43.93249469	          9.86330939	         -1.23084518	         -1.44028339	         80.66650707	        -12.26693721	         39.18939567	         85.98243524	         -7.08853219	
          4.08000000	        -43.77411703	          9.86604822	         -1.10237793	         -1.44380953	         80.48800467	        -12.19413252	         39.35925269	         85.86482393	         -7.09855672	
          4.09000000	        -43.61463588	          9.86746611	         -0.97195265	         -1.44799337	         80.30918100	        -12.12078583	         39.53406466	         85.74387990	         -7.11460542	
          4.10000000	        -43.45442874	          9.86773397	         -0.84010008	         -1.45273139	         80.13022759	        -12.04716113	         39.71345714	         85.61958467	         -7.13634287	
          4.11000000	        -43.29387612	          9.86701771	         -0.70736891	         -1.45792605	         79.95131967	        -11.97351986	         39.89707046	         85.49191255	         -7.16333882	
          4.12000000	        -43.13335946	          9.86547356	         -0.57431817	         -1.46348841	         79.77262009	        -11.90011774	         40.08456469	         85.36083490	         -7.19509404	
          4.13000000	        -42.97325541	          9.86324006	         -0.44150528	         -1.46934291	         79.59427937	        -11.82719923	         40.27562480	         85.22632520	         -7.23106683	
          4.14000000	        -42.81392674	          9.86042872	         -0.30947077	         -1.47543319	         79.41643248	        -11.75499034	         40.46996600	         85.08836447	         -7.27069555	
          4.15000000	        -42.65571149	          9.85711547	         -0.17872148	         -1.48172736	         79.23919370	        -11.68369108	         40.66733845	         84.94694557	         -7.31341520	
          4.16000000	        -42.49891203	          9.85333440	         -0.04971393	         -1.48822171	         79.06265181	        -11.61346858	         40.86753051	         84.80207557	         -7.35866877	
          4.17000000	        -42.34378546	          9.84907389	          0.07716052	         -1.49494270	         78.88686666	        -11.54445175	         41.07036988	         84.65377615	         -7.40591460	
          4.18000000	        -42.19053646	          9.84427446	          0.20158757	         -1.50194780	         78.71186768	        -11.47672768	         41.27572278	         84.50208292	         -7.45463113	
          4.19000000	        -42.03931312	          9.83882859	          0.32333783	         -1.50932515	         78.53765448	        -11.41034008	         41.48349106	         84.34704521	         -7.50431967	
          4.20000000	        -41.89020561	          9.83258393	          0.44227056	         -1.51719085	         78.36419931	        -11.34529004	         41.69360735	         84.18872673	         -7.55450651	
          4.21000000	        -41.74324750	          9.82535177	          0.55833286	         -1.52568283	         78.19145146	        -11.28153931	         41.90602826	         84.02720716	         -7.60474533	
          4.22000000	        -41.59841993	          9.81692164	          0.67155372	         -1.53495075	         78.01934309	        -11.21901623	         42.12072700	         83.86258373	         -7.65462176	
          4.23000000	        -41.45565846	          9.80708087	          0.78203237	         -1.54514265	         77.84779562	        -11.15762433	         42.33768714	         83.69497219	         -7.70376193	
          4.24000000	        -41.31486276	          9.79563636	          0.88992117	         -1.55639038	         77.67672606	        -11.09725268	         42.55689928	         83.52450600	         -7.75184617	
          4.25000000	        -41.17590889	          9.78243537	          0.99540385	         -1.56879609	         77.50605284	        -11.03778746	         42.77836120	         83.35133347	         -7.79862685	
          4.26000000	        -41.03866356	          9.76738254	          1.09867050	         -1.58242143	         77.33570066	        -10.97912350	         43.00208174	         83.17561231	         -7.84394781	
